1.9Hzlow3min_grf.mot
version=1
nRows=20
nColumns 19
inDegrees=yes
endheader
time	1_ground_force_vx	1_ground_force_vy	1_ground_force_vz	1_ground_force_px	1_ground_force_py	1_ground_force_pz	1_ground_torque_x	1_ground_torque_y	1_ground_torque_z	2_ground_force_vx	2_ground_force_vy	2_ground_force_vz	2_ground_force_px	2_ground_force_py	2_ground_force_pz	2_ground_torque_x	2_ground_torque_y	2_ground_torque_z
            2.502500	           -0.400283	          919.035538	          -89.744617	           -0.145275	            0.006318	           -0.423830	           -0.002155	            4.948928	           -0.483267	          -15.149960	          847.237583	          102.094837	           -0.126466	            0.006252	           -0.760856	            0.104166	           -5.825312	           -0.701969
            2.503000	           -0.718471	          912.903752	          -89.128110	           -0.145021	            0.006319	           -0.423845	           -0.003791	            4.816885	           -0.470279	          -14.616084	          842.083930	          101.888507	           -0.126227	            0.006253	           -0.760928	            0.099907	           -5.756016	           -0.696453
            2.503500	           -1.173083	          906.950147	          -88.051938	           -0.144909	            0.006318	           -0.423742	           -0.006135	            4.743467	           -0.460523	          -14.694245	          837.667440	          100.934216	           -0.126062	            0.006255	           -0.761059	            0.100019	           -5.701717	           -0.687025
            2.504000	           -1.169636	          899.916081	          -87.210833	           -0.144621	            0.006318	           -0.423808	           -0.006087	            4.683448	           -0.453873	          -14.765594	          831.408083	          100.348779	           -0.125882	            0.006255	           -0.761009	            0.100036	           -5.632713	           -0.679854
            2.504500	           -1.440013	          893.600543	          -85.815667	           -0.144475	            0.006319	           -0.423861	           -0.007550	            4.685424	           -0.449958	          -14.796863	          826.991305	           99.488323	           -0.125772	            0.006255	           -0.761028	            0.100791	           -5.633171	           -0.677679
            2.505000	           -1.392371	          888.731836	          -85.469804	           -0.144526	            0.006318	           -0.423668	           -0.007151	            4.564226	           -0.438944	          -14.539537	          820.548550	           99.042866	           -0.125474	            0.006256	           -0.760872	            0.098199	           -5.541902	           -0.668926
            2.505500	           -1.250925	          882.237580	          -84.397430	           -0.144318	            0.006318	           -0.423598	           -0.006434	            4.537569	           -0.434077	          -14.521195	          815.394542	           98.414411	           -0.125263	            0.006257	           -0.760964	            0.098505	           -5.531229	           -0.667594
            2.506000	           -1.247398	          875.383613	          -83.509684	           -0.143951	            0.006318	           -0.423734	           -0.006378	            4.476207	           -0.427020	          -14.411812	          810.977436	           97.788528	           -0.125223	            0.006258	           -0.761079	            0.097349	           -5.477986	           -0.660541
            2.506500	           -1.198207	          868.890322	          -82.666358	           -0.143676	            0.006317	           -0.423546	           -0.006105	            4.427406	           -0.421224	          -14.346558	          805.823217	           97.300830	           -0.125083	            0.006258	           -0.761151	            0.096579	           -5.424703	           -0.655017
            2.507000	           -1.149618	          862.578188	          -82.051551	           -0.143522	            0.006318	           -0.423657	           -0.005859	            4.396249	           -0.418187	          -14.464031	          799.378986	           96.855547	           -0.124871	            0.006259	           -0.761248	            0.095885	           -5.299239	           -0.642074
            2.507500	           -1.099484	          855.903150	          -80.842150	           -0.143333	            0.006318	           -0.423723	           -0.005590	            4.351340	           -0.410995	          -14.304057	          793.859213	           95.662565	           -0.124410	            0.006261	           -0.761099	            0.095775	           -5.315387	           -0.640521
            2.508000	           -1.232461	          849.047266	          -79.541364	           -0.143131	            0.006319	           -0.423823	           -0.006258	            4.310904	           -0.403859	          -14.240153	          789.073321	           95.129260	           -0.124363	            0.006261	           -0.761064	            0.094688	           -5.246835	           -0.632549
            2.508500	           -1.413396	          842.555503	          -79.064317	           -0.142999	            0.006318	           -0.423716	           -0.006943	            4.139077	           -0.388406	          -14.034432	          783.920279	           94.453790	           -0.124179	            0.006262	           -0.761234	            0.094333	           -5.269164	           -0.634876
            2.509000	           -1.226593	          834.980903	          -78.271822	           -0.142785	            0.006319	           -0.423896	           -0.005992	            4.079012	           -0.382370	          -14.009526	          776.925412	           93.631036	           -0.123917	            0.006262	           -0.760944	            0.094036	           -5.214936	           -0.628477
            2.509500	           -1.085362	          830.289046	          -77.145867	           -0.142785	            0.006317	           -0.423477	           -0.005378	            4.114172	           -0.382266	          -13.946163	          772.322718	           93.379957	           -0.123770	            0.006263	           -0.761095	            0.092602	           -5.128181	           -0.620038
            2.510000	           -1.082500	          822.715392	          -76.582208	           -0.142263	            0.006319	           -0.423786	           -0.005246	            3.987361	           -0.371162	          -13.832875	          766.801436	           92.562419	           -0.123600	            0.006264	           -0.761138	            0.090177	           -4.998808	           -0.603418
            2.510500	           -0.895684	          816.942798	          -75.644427	           -0.142428	            0.006318	           -0.423660	           -0.004476	            4.082352	           -0.378003	          -13.672633	          761.279609	           91.979511	           -0.123361	            0.006265	           -0.761181	            0.089158	           -4.964261	           -0.599793
            2.511000	           -0.756009	          809.550525	          -75.355465	           -0.142105	            0.006319	           -0.423836	           -0.003760	            4.025966	           -0.374749	          -13.557851	          755.388708	           91.536100	           -0.123222	            0.006265	           -0.761064	            0.087429	           -4.871170	           -0.590276
            2.511500	           -1.073448	          803.056966	          -74.465377	           -0.141893	            0.006319	           -0.423749	           -0.005201	            3.891275	           -0.360828	          -13.304074	          749.868436	           90.577727	           -0.122969	            0.006266	           -0.761031	            0.086967	           -4.901816	           -0.592098
            2.512000	           -1.024308	          797.464838	          -73.572334	           -0.141782	            0.006318	           -0.423492	           -0.004868	            3.789693	           -0.349629	          -13.237614	          744.346818	           89.807145	           -0.122784	            0.006266	           -0.761049	            0.085218	           -4.791795	           -0.578141
